<svg width="70" height="70" viewBox="0 0 70 70" fill="none" xmlns="http://www.w3.org/2000/svg">
<g clip-path="url(#clip0_487_9)">
<rect width="70" height="70" rx="10" fill="white"/>
<path d="M14 57C14 53.717 14.5432 50.4661 15.5985 47.4329C16.6539 44.3998 18.2007 41.6438 20.1508 39.3223C22.1008 37.0009 24.4158 35.1594 26.9636 33.903C29.5115 32.6466 32.2422 32 35 32C37.7578 32 40.4885 32.6466 43.0364 33.903C45.5842 35.1594 47.8992 37.0009 49.8492 39.3223C51.7993 41.6438 53.3461 44.3998 54.4015 47.4329C55.4568 50.4661 56 53.717 56 57L35 57H14Z" fill="#FFD700"/>
<circle cx="35" cy="21" r="10" fill="#6495ED"/>
<path d="M12.5408 53.86C12.4108 53.03 12.1308 52.405 11.7008 51.985C11.2808 51.565 10.7208 51.35 10.0208 51.34C9.50078 51.34 9.04578 51.46 8.65578 51.7C8.26578 51.94 7.94078 52.26 7.68078 52.66C7.43078 53.06 7.24078 53.515 7.11078 54.025C6.99078 54.535 6.93078 55.06 6.93078 55.6C6.93078 56.46 7.05078 57.225 7.29078 57.895C7.54078 58.555 7.90078 59.075 8.37078 59.455C8.84078 59.835 9.41078 60.025 10.0808 60.025C10.7108 60.025 11.3358 59.865 11.9558 59.545C12.5758 59.215 13.0958 58.76 13.5158 58.18L14.2358 58.84C13.7458 59.51 13.2308 60.02 12.6908 60.37C12.1508 60.71 11.6208 60.94 11.1008 61.06C10.5908 61.18 10.1308 61.24 9.72078 61.24C8.95078 61.24 8.25078 61.105 7.62078 60.835C6.99078 60.555 6.44578 60.175 5.98578 59.695C5.53578 59.205 5.18578 58.64 4.93578 58C4.69578 57.35 4.57578 56.65 4.57578 55.9C4.57578 55.22 4.68578 54.545 4.90578 53.875C5.12578 53.205 5.45078 52.6 5.88078 52.06C6.32078 51.51 6.87078 51.075 7.53078 50.755C8.19078 50.425 8.95578 50.26 9.82578 50.26C10.2158 50.26 10.6408 50.325 11.1008 50.455C11.5708 50.575 12.0108 50.755 12.4208 50.995L12.3608 50.365H13.5158V53.86H12.5408ZM16.3279 61V60.01C16.5579 60 16.7479 59.97 16.8979 59.92C17.0579 59.87 17.1779 59.755 17.2579 59.575C17.3479 59.395 17.3929 59.105 17.3929 58.705V52.96C17.3929 52.69 17.3979 52.43 17.4079 52.18C17.4279 51.93 17.4429 51.74 17.4529 51.61C17.2929 51.62 17.0929 51.63 16.8529 51.64C16.6129 51.64 16.4379 51.645 16.3279 51.655V50.5H20.6329V51.49C20.4129 51.5 20.2229 51.53 20.0629 51.58C19.9029 51.63 19.7779 51.745 19.6879 51.925C19.6079 52.095 19.5679 52.385 19.5679 52.795V58.54C19.5679 58.81 19.5629 59.065 19.5529 59.305C19.5429 59.545 19.5279 59.73 19.5079 59.86H21.5179C22.1079 59.86 22.5679 59.655 22.8979 59.245C23.2379 58.835 23.4079 58.22 23.4079 57.4H24.4129L24.3229 61H16.3279ZM30.8857 51.49C30.6657 51.5 30.4757 51.53 30.3157 51.58C30.1557 51.63 30.0307 51.745 29.9407 51.925C29.8607 52.095 29.8207 52.385 29.8207 52.795V58.54C29.8207 58.81 29.8157 59.07 29.8057 59.32C29.7957 59.57 29.7807 59.76 29.7607 59.89C29.9207 59.87 30.1207 59.86 30.3607 59.86C30.6107 59.85 30.7857 59.845 30.8857 59.845V61H26.5807V60.01C26.8107 60 27.0007 59.97 27.1507 59.92C27.3107 59.87 27.4307 59.755 27.5107 59.575C27.6007 59.395 27.6457 59.105 27.6457 58.705V52.96C27.6457 52.69 27.6507 52.43 27.6607 52.18C27.6807 51.93 27.6957 51.74 27.7057 51.61C27.5457 51.62 27.3457 51.63 27.1057 51.64C26.8657 51.64 26.6907 51.645 26.5807 51.655V50.5H30.8857V51.49ZM38.6814 57.385C38.6814 56.965 38.6164 56.66 38.4864 56.47C38.3564 56.28 38.1764 56.165 37.9464 56.125C37.7264 56.075 37.4814 56.055 37.2114 56.065L36.8214 56.08V58.54C36.8214 58.81 36.8164 59.065 36.8064 59.305C36.7964 59.545 36.7814 59.73 36.7614 59.86H38.7714C39.0714 59.86 39.3614 59.795 39.6414 59.665C39.9214 59.525 40.1514 59.3 40.3314 58.99C40.5114 58.67 40.6014 58.24 40.6014 57.7H41.5764L41.5014 61H33.5814V60.01C33.8114 60 34.0014 59.97 34.1514 59.92C34.3114 59.87 34.4314 59.755 34.5114 59.575C34.6014 59.395 34.6464 59.105 34.6464 58.705V52.96C34.6464 52.69 34.6514 52.43 34.6614 52.18C34.6814 51.93 34.6964 51.74 34.7064 51.61C34.5464 51.62 34.3464 51.63 34.1064 51.64C33.8664 51.64 33.6914 51.645 33.5814 51.655V50.5H41.0814L41.1714 53.41H40.1814C40.1814 52.86 40.0864 52.445 39.8964 52.165C39.7064 51.885 39.4714 51.7 39.1914 51.61C38.9114 51.51 38.6364 51.465 38.3664 51.475L37.8264 51.49C37.6164 51.49 37.4364 51.52 37.2864 51.58C37.1364 51.63 37.0214 51.75 36.9414 51.94C36.8614 52.12 36.8214 52.405 36.8214 52.795V55.045H38.5764L38.5164 53.74H39.6714V57.385H38.6814ZM52.1218 61.15L47.3218 55.015C47.1918 54.845 47.0568 54.665 46.9168 54.475C46.7768 54.285 46.6368 54.09 46.4968 53.89H46.4818L46.5118 58.54C46.5118 58.81 46.5068 59.07 46.4968 59.32C46.4868 59.57 46.4718 59.76 46.4518 59.89C46.6118 59.87 46.8118 59.86 47.0518 59.86C47.3018 59.85 47.4768 59.845 47.5768 59.845V61H44.1568V60.01C44.3868 60 44.5768 59.97 44.7268 59.92C44.8868 59.87 45.0068 59.755 45.0868 59.575C45.1768 59.395 45.2218 59.105 45.2218 58.705L45.1918 52.96C45.1918 52.69 45.1968 52.43 45.2068 52.18C45.2168 51.93 45.2318 51.74 45.2518 51.61C45.0918 51.62 44.8868 51.63 44.6368 51.64C44.3968 51.64 44.2218 51.645 44.1118 51.655V50.5H46.4668L51.0568 56.29C51.3068 56.61 51.5118 56.885 51.6718 57.115C51.8418 57.345 51.9868 57.545 52.1068 57.715H52.1218V52.96C52.1218 52.69 52.1268 52.43 52.1368 52.18C52.1468 51.93 52.1568 51.74 52.1668 51.61C52.0068 51.62 51.8068 51.63 51.5668 51.64C51.3268 51.64 51.1518 51.645 51.0418 51.655V50.5H54.4618V51.49C54.2418 51.5 54.0518 51.53 53.8918 51.58C53.7318 51.63 53.6068 51.745 53.5168 51.925C53.4368 52.095 53.3968 52.385 53.3968 52.795V61.15H52.1218ZM64.6984 53.89C64.6984 53.35 64.6234 52.905 64.4734 52.555C64.3234 52.195 64.1084 51.93 63.8284 51.76C63.5584 51.58 63.2334 51.495 62.8534 51.505H62.1334V58.54C62.1334 58.81 62.1284 59.07 62.1184 59.32C62.1084 59.57 62.0934 59.76 62.0734 59.89C62.2434 59.87 62.4584 59.86 62.7184 59.86C62.9884 59.85 63.1734 59.845 63.2734 59.845V61H58.8934V60.01C59.1234 60 59.3134 59.97 59.4634 59.92C59.6234 59.87 59.7434 59.755 59.8234 59.575C59.9134 59.395 59.9584 59.105 59.9584 58.705V51.52H59.2684C58.6984 51.53 58.2484 51.725 57.9184 52.105C57.5884 52.485 57.4234 53.08 57.4234 53.89H56.4334L56.5084 50.5H65.5984L65.6884 53.89H64.6984Z" fill="black"/>
</g>
<defs>
<clipPath id="clip0_487_9">
<rect width="70" height="70" rx="10" fill="white"/>
</clipPath>
</defs>
</svg>
