<svg width="70" height="70" viewBox="0 0 70 70" fill="none" xmlns="http://www.w3.org/2000/svg">
<g clip-path="url(#clip0_487_9)">
<rect width="70" height="70" rx="10" fill="white"/>
<path d="M14 57C14 53.717 14.5432 50.4661 15.5985 47.4329C16.6539 44.3998 18.2007 41.6438 20.1508 39.3223C22.1008 37.0009 24.4158 35.1594 26.9636 33.903C29.5115 32.6466 32.2422 32 35 32C37.7578 32 40.4885 32.6466 43.0364 33.903C45.5842 35.1594 47.8992 37.0009 49.8492 39.3223C51.7993 41.6438 53.3461 44.3998 54.4015 47.4329C55.4568 50.4661 56 53.717 56 57L35 57H14Z" fill="#FFD700"/>
<circle cx="35" cy="21" r="10" fill="#20B2AA"/>
<path d="M25.3564 53.86C25.2264 53.03 24.9464 52.405 24.5164 51.985C24.0964 51.565 23.5364 51.35 22.8364 51.34C22.3164 51.34 21.8614 51.46 21.4714 51.7C21.0814 51.94 20.7564 52.26 20.4964 52.66C20.2464 53.06 20.0564 53.515 19.9264 54.025C19.8064 54.535 19.7464 55.06 19.7464 55.6C19.7464 56.46 19.8664 57.225 20.1064 57.895C20.3564 58.555 20.7164 59.075 21.1864 59.455C21.6564 59.835 22.2264 60.025 22.8964 60.025C23.5264 60.025 24.1514 59.865 24.7714 59.545C25.3914 59.215 25.9114 58.76 26.3314 58.18L27.0514 58.84C26.5614 59.51 26.0464 60.02 25.5064 60.37C24.9664 60.71 24.4364 60.94 23.9164 61.06C23.4064 61.18 22.9464 61.24 22.5364 61.24C21.7664 61.24 21.0664 61.105 20.4364 60.835C19.8064 60.555 19.2614 60.175 18.8014 59.695C18.3514 59.205 18.0014 58.64 17.7514 58C17.5114 57.35 17.3914 56.65 17.3914 55.9C17.3914 55.22 17.5014 54.545 17.7214 53.875C17.9414 53.205 18.2664 52.6 18.6964 52.06C19.1364 51.51 19.6864 51.075 20.3464 50.755C21.0064 50.425 21.7714 50.26 22.6414 50.26C23.0314 50.26 23.4564 50.325 23.9164 50.455C24.3864 50.575 24.8264 50.755 25.2364 50.995L25.1764 50.365H26.3314V53.86H25.3564ZM34.5136 61.15C34.1736 60.32 33.8336 59.495 33.4936 58.675C33.1636 57.855 32.8286 57.035 32.4886 56.215C32.4086 56.025 32.3036 55.76 32.1736 55.42C32.0536 55.07 31.9236 54.67 31.7836 54.22C31.6536 53.77 31.5336 53.305 31.4236 52.825C31.4436 53.385 31.4586 53.915 31.4686 54.415C31.4786 54.905 31.4786 55.375 31.4686 55.825C31.4686 56.045 31.4686 56.27 31.4686 56.5C31.4686 56.73 31.4636 56.96 31.4536 57.19C31.4536 57.41 31.4536 57.635 31.4536 57.865C31.4536 58.085 31.4536 58.31 31.4536 58.54C31.4536 58.81 31.4436 59.07 31.4236 59.32C31.4136 59.57 31.3986 59.76 31.3786 59.89C31.5486 59.87 31.7536 59.86 31.9936 59.86C32.2436 59.85 32.4186 59.845 32.5186 59.845V61H29.0986V60.01C29.3286 60 29.5186 59.97 29.6686 59.92C29.8286 59.87 29.9486 59.755 30.0286 59.575C30.1186 59.395 30.1636 59.105 30.1636 58.705L30.2536 52.96C30.2636 52.69 30.2736 52.43 30.2836 52.18C30.2936 51.93 30.3036 51.74 30.3136 51.61C30.1536 51.62 29.9536 51.63 29.7136 51.64C29.4736 51.64 29.2986 51.645 29.1886 51.655V50.5H32.5036L34.7686 56.305C34.8586 56.535 34.9586 56.805 35.0686 57.115C35.1786 57.415 35.2836 57.71 35.3836 58C35.4836 58.28 35.5586 58.505 35.6086 58.675H35.6236C35.7536 58.325 35.8736 57.985 35.9836 57.655C36.0936 57.325 36.2086 57.005 36.3286 56.695C36.7186 55.655 37.1036 54.62 37.4836 53.59C37.8736 52.56 38.2636 51.53 38.6536 50.5H42.1186V51.49C41.8986 51.5 41.7036 51.53 41.5336 51.58C41.3636 51.63 41.2336 51.745 41.1436 51.925C41.0636 52.095 41.0286 52.385 41.0386 52.795L41.2636 58.54C41.2836 58.81 41.2836 59.07 41.2636 59.32C41.2436 59.57 41.2236 59.76 41.2036 59.89C41.3736 59.87 41.5786 59.86 41.8186 59.86C42.0686 59.85 42.2436 59.845 42.3436 59.845V61H38.1736V60.01C38.4036 60 38.5986 59.97 38.7586 59.92C38.9286 59.87 39.0536 59.755 39.1336 59.575C39.2236 59.395 39.2586 59.105 39.2386 58.705L39.1186 55.525C39.1186 55.405 39.1086 55.2 39.0886 54.91C39.0686 54.61 39.0486 54.285 39.0286 53.935C39.0186 53.575 39.0086 53.24 38.9986 52.93C38.9686 53 38.9386 53.07 38.9086 53.14C38.8786 53.2 38.8536 53.265 38.8336 53.335L35.9086 61.15H34.5136ZM50.9787 53.86C50.8887 53.3 50.7287 52.835 50.4987 52.465C50.2687 52.085 49.9737 51.8 49.6137 51.61C49.2637 51.42 48.8537 51.33 48.3837 51.34C47.9537 51.34 47.5737 51.46 47.2437 51.7C46.9237 51.94 46.7637 52.25 46.7637 52.63C46.7637 52.94 46.8487 53.21 47.0187 53.44C47.1987 53.67 47.4687 53.885 47.8287 54.085C48.1887 54.285 48.6437 54.5 49.1937 54.73C49.5737 54.88 49.9637 55.055 50.3637 55.255C50.7637 55.455 51.1337 55.695 51.4737 55.975C51.8137 56.245 52.0887 56.565 52.2987 56.935C52.5087 57.295 52.6137 57.72 52.6137 58.21C52.6137 58.8 52.4537 59.325 52.1337 59.785C51.8137 60.245 51.3637 60.605 50.7837 60.865C50.2137 61.115 49.5437 61.24 48.7737 61.24C48.3737 61.24 47.9387 61.175 47.4687 61.045C47.0087 60.925 46.5737 60.745 46.1637 60.505L46.2087 61.135H45.0537V57.625H46.0437C46.1837 58.465 46.5037 59.1 47.0037 59.53C47.5137 59.95 48.1187 60.16 48.8187 60.16C49.1787 60.16 49.4937 60.095 49.7637 59.965C50.0337 59.835 50.2437 59.665 50.3937 59.455C50.5437 59.235 50.6187 59 50.6187 58.75C50.6187 58.4 50.4937 58.11 50.2437 57.88C50.0037 57.65 49.6987 57.455 49.3287 57.295C48.9687 57.135 48.5987 56.98 48.2187 56.83C47.7387 56.63 47.2887 56.42 46.8687 56.2C46.4587 55.97 46.0987 55.71 45.7887 55.42C45.4787 55.13 45.2387 54.8 45.0687 54.43C44.8987 54.05 44.8137 53.615 44.8137 53.125C44.8137 52.815 44.8737 52.495 44.9937 52.165C45.1137 51.825 45.3087 51.515 45.5787 51.235C45.8487 50.945 46.2087 50.71 46.6587 50.53C47.1087 50.35 47.6637 50.26 48.3237 50.26C48.7237 50.26 49.1587 50.32 49.6287 50.44C50.1087 50.56 50.5187 50.74 50.8587 50.98L50.7987 50.365H51.9687V53.86H50.9787Z" fill="black"/>
</g>
<defs>
<clipPath id="clip0_487_9">
<rect width="70" height="70" rx="10" fill="white"/>
</clipPath>
</defs>
</svg>
